<svg width="237" height="245" viewBox="0 0 237 245" fill="none"
    xmlns="http://www.w3.org/2000/svg">
    <path d="M51.1059 148.302C51.794 153.616 48.3536 157.355 47.1741 158.438C48.0587 165.72 51.3025 172.805 56.414 178.02C62.6067 184.416 69.8807 186.581 78.3342 188.254C84.3303 189.337 89.5401 194.355 81.578 198.587C75.8768 201.637 68.6028 200.653 63.0982 197.307C57.5935 193.863 53.6617 188.352 51.0077 182.448C47.6656 174.97 46.0928 166.704 46.3877 158.438C44.9132 157.158 40.6865 153.025 40.5882 146.728C40.4899 142.988 41.9643 140.134 42.7507 138.757C47.1741 140.036 50.5162 143.775 51.1059 148.302Z" fill="#F68317"/>
    <path d="M42.7494 138.654C47.2711 139.933 50.5149 143.771 51.1046 148.2C51.7927 153.513 48.3523 157.253 47.1728 158.335C48.0574 165.617 51.3012 172.703 56.4127 177.918C62.6054 184.315 69.8793 186.479 78.3329 188.152C84.329 189.235 89.5387 194.254 81.5767 198.485C79.2175 199.764 76.5635 200.355 73.9095 200.355C70.1742 200.355 66.3406 199.174 63.0969 197.206C57.5922 193.761 53.6604 188.251 51.0064 182.346C47.6643 174.868 46.0915 166.601 46.3864 158.335C44.912 157.056 40.6852 152.923 40.5869 146.625C40.4886 142.886 41.963 140.032 42.7494 138.654ZM42.7494 133.931C41.1767 133.931 39.6039 134.816 38.7193 136.194C37.3431 138.457 35.7703 142.098 35.8686 146.625C35.9669 153.021 39.2107 157.646 41.5699 160.205C41.5699 168.471 43.2409 176.737 46.583 184.118C50.0234 191.793 54.7416 197.501 60.4428 201.044C64.473 203.504 69.1913 204.881 73.7129 204.881C77.2516 204.881 80.692 204.094 83.6409 202.52C90.0302 199.075 90.4234 194.746 90.0302 192.482C89.2438 187.168 83.5426 184.216 79.0209 183.429C70.8623 181.854 64.6696 179.886 59.6565 174.572C55.7246 170.538 53.0706 165.322 52.0876 159.713C54.0536 157.253 56.4127 153.021 55.7246 147.511C54.9382 141.114 50.3183 135.8 44.0273 134.029C43.6341 134.029 43.1426 133.931 42.7494 133.931Z" fill="#1E3D74"/>
    <path d="M127.187 95.1561C129.939 95.1561 132.593 95.1561 135.346 95.2545C141.243 95.3529 147.338 95.6481 152.744 98.2067C161.001 102.143 166.211 110.803 170.339 119.265C170.831 120.249 171.421 122.021 172.01 124.284C176.925 122.906 181.84 121.529 186.657 119.659C191.965 117.593 197.174 115.132 202.187 112.377C203.858 110.901 205.628 109.622 207.495 109.622C208.675 109.622 209.953 110.212 211.034 111.59C212.115 112.967 212.803 114.739 213.393 116.412C215.359 121.922 217.325 127.827 216.44 133.534C216.539 136.388 216.342 139.242 215.851 142.095C215.851 142.194 215.851 142.194 215.851 142.292C215.654 143.375 215.457 144.359 215.261 145.343C215.064 146.425 214.868 147.508 214.671 148.492C214.376 149.87 213.492 151.247 212.607 152.33C212.017 153.019 211.132 153.511 210.248 154.003C201.401 158.431 190.883 156.66 181.25 158.923C180.071 159.218 178.694 159.907 178.793 161.383C179.677 167.976 180.267 174.077 180.464 178.702C191.276 179.194 202.384 181.753 211.919 184.508C212.312 184.41 212.705 184.41 213.197 184.41C213.393 184.41 213.688 184.41 213.885 184.41C218.505 184.803 222.437 187.854 225.975 190.806C226.958 191.692 228.039 192.676 228.826 193.66C231.185 195.923 232.364 199.466 232.266 202.812C232.07 206.945 230.202 210.783 227.843 214.227C223.026 221.41 216.244 227.216 208.38 230.759C205.529 232.038 202.875 233.317 199.927 233.317C199.337 233.317 198.649 233.219 198.059 233.121H197.961C196.093 233.121 194.225 232.53 192.358 231.94C186.362 229.972 180.366 228.003 174.369 226.035C169.946 224.953 165.621 223.083 161.198 222.001C159.133 221.509 155.005 221.115 155.005 221.115C155.005 221.115 136.722 224.658 117.161 224.658C107.528 224.658 97.5014 223.772 89.1462 221.214C87.9666 221.214 69.0937 227.216 66.6362 227.708C66.7345 227.61 66.8328 227.61 67.0294 227.511C59.1657 229.972 51.302 232.432 43.4382 234.892C41.6689 235.482 39.8012 235.974 38.0319 235.974C37.6387 235.974 37.1472 235.974 36.754 235.876C36.4591 235.876 36.066 235.876 35.7711 235.876C32.1341 235.876 28.5954 234.301 25.7448 232.038C22.3044 229.283 19.6504 225.642 16.9964 222.099C14.4407 218.557 11.885 215.112 9.32926 211.57C5.88888 206.846 2.0553 197.793 7.75651 193.857C8.54289 193.07 9.32926 192.479 9.62415 192.282C11.885 190.609 14.539 189.429 17.193 188.543C20.1419 187.559 23.1891 186.772 26.2363 186.772C26.3346 186.772 26.5312 186.772 26.6295 186.772C36.4592 184.213 47.665 181.95 58.4776 181.95C59.1657 181.95 59.8538 181.95 60.6401 181.95C60.8367 177.915 61.3282 173.88 61.8197 170.043C63.4907 158.037 66.6362 146.425 70.2732 135.01C73.0255 126.646 75.0898 114.444 79.7097 107.063C84.0348 99.978 97.2065 98.3051 104.48 97.1242C111.853 95.5497 119.52 95.1561 127.187 95.1561ZM127.187 90.4326C117.849 90.4326 110.378 90.9246 103.596 92.0071L102.318 92.2039C93.7661 93.5816 80.6927 95.6481 75.4829 104.209C71.9443 110.015 69.7817 117.986 67.9141 125.071C67.1277 128.024 66.4397 130.779 65.6533 133.141C61.3282 146.721 58.5759 158.136 57.0032 168.96C56.61 171.814 56.3151 174.471 56.1185 176.833C47.2718 177.029 37.3438 178.604 25.9414 181.655C22.7959 181.655 19.4538 182.343 15.522 183.721C11.9833 184.902 9.13267 186.378 6.67525 188.149C6.18377 188.444 5.39739 189.133 4.61102 189.921C2.2519 191.692 0.67915 194.25 0.187667 197.203C-0.7953 203.008 2.2519 209.7 5.39739 214.03L9.52585 219.639L13.0645 224.559C15.7185 228.2 18.6674 232.333 22.6976 235.482C26.7278 238.631 31.2494 240.403 35.6728 240.403C35.9677 240.403 36.2626 240.403 36.5574 240.403C37.0489 240.501 37.5404 240.501 38.0319 240.501C40.4893 240.501 42.6518 239.911 44.8144 239.222L54.5457 236.171L67.226 232.235C67.3243 232.235 67.5209 232.235 67.6192 232.137C68.7988 231.841 72.1409 230.857 77.5472 229.283C81.3807 228.102 86.7871 226.527 88.9496 225.937C96.6167 228.102 106.053 229.184 117.161 229.184C135.051 229.184 151.663 226.331 155.202 225.74C156.774 225.937 159.035 226.232 160.116 226.527C162.082 227.019 164.147 227.708 166.309 228.495C168.472 229.283 170.732 229.972 173.092 230.562L176.827 231.841L190.982 236.466C193.144 237.155 195.307 237.844 197.666 237.844C198.452 237.942 199.14 238.041 199.927 238.041C203.858 238.041 207.299 236.466 210.346 235.089C218.996 231.054 226.467 224.855 231.775 216.884C235.018 211.963 236.788 207.437 236.984 203.107C237.181 198.285 235.51 193.66 232.364 190.511C231.48 189.429 230.3 188.346 229.121 187.264C224.894 183.721 220.176 180.277 214.376 179.785C213.983 179.785 213.59 179.686 213.295 179.686C213 179.686 212.705 179.686 212.41 179.686C202.187 176.734 193.242 174.963 185.084 174.176C184.887 170.928 184.494 167.189 183.904 163.056C186.853 162.465 190.097 162.269 193.341 162.072C199.632 161.678 206.218 161.186 212.41 158.136C213.492 157.545 214.966 156.758 216.146 155.38C217.62 153.707 218.701 151.641 219.291 149.574C219.586 148.393 219.783 147.311 219.979 146.229C220.274 145.146 220.471 144.064 220.569 143.08C220.569 142.883 220.667 142.686 220.667 142.489C221.06 139.635 221.257 136.782 221.257 133.829C222.142 127.433 220.176 121.135 217.915 114.837C217.227 112.967 216.44 110.704 214.769 108.638C212.312 105.587 209.461 104.898 207.594 104.898C204.153 104.898 201.401 106.866 199.533 108.539C194.815 111.098 189.9 113.459 184.985 115.329C181.742 116.608 178.301 117.691 175.156 118.577C174.959 118.085 174.763 117.691 174.664 117.297C166.997 101.356 160.018 96.4353 154.808 93.9752C148.812 91.1215 142.521 90.7278 135.444 90.6294C132.2 90.531 129.546 90.4326 127.187 90.4326Z" fill="#1E3D74"/>
    <path d="M61.7216 169.743C59.7557 183.52 58.7727 200.249 68.799 209.597C93.5698 232.526 154.514 223.473 166.408 212.845C170.045 209.597 175.942 203.988 177.908 199.363C180.071 194.246 180.267 188.539 180.562 182.929C181.152 168.759 173.682 126.149 170.438 119.359C166.309 110.897 161.1 102.237 152.843 98.3006C147.436 95.7421 141.342 95.5452 135.444 95.3484C125.123 95.1516 114.704 95.1516 104.481 96.8245C97.2068 98.0054 84.035 99.6783 79.7099 106.763C75.1883 114.144 73.0258 126.346 70.2735 134.711C66.5382 146.126 63.3927 157.738 61.7216 169.743Z" fill="#F68317"/>
    <path d="M22.8949 187.453C19.258 188.437 15.7193 189.717 12.7704 191.98C9.82148 194.243 7.65895 197.884 7.85554 201.624C8.05214 204.281 9.32999 206.643 10.6079 208.906C16.1125 218.156 23.2881 226.324 31.6433 233.016C32.9212 234 34.2974 235.082 35.8701 235.476C38.3275 236.165 40.8832 235.378 43.3406 234.689C59.1664 229.768 74.8939 224.848 90.7197 219.928C92.9805 219.239 95.3396 218.452 96.814 216.68C98.0919 215.106 98.5834 213.039 98.6817 210.973C99.0749 202.116 93.472 193.85 86.0997 188.831C68.5046 177.022 42.1611 182.041 22.8949 187.453Z" fill="#F68317"/>
    <path d="M213.592 184.998C217.13 186.081 220.767 187.36 223.716 189.722C226.665 192.083 228.729 195.724 228.434 199.365C228.238 202.022 226.96 204.384 225.584 206.648C219.981 215.799 212.609 223.869 204.155 230.364C202.877 231.348 201.501 232.332 199.928 232.824C197.471 233.513 194.915 232.627 192.458 231.84C176.73 226.624 161.003 221.507 145.374 216.291C143.113 215.603 140.852 214.717 139.378 212.946C138.1 211.371 137.707 209.206 137.608 207.238C137.313 198.381 143.113 190.115 150.583 185.293C168.277 173.78 194.522 179.192 213.592 184.998Z" fill="#F68317"/>
    <path d="M203.27 111.688C205.236 110.606 207.595 109.425 209.463 110.606C210.347 111.098 210.839 112.082 211.232 112.968C216.737 123.694 217.818 136.683 214.279 148.196C213.984 148.984 213.788 149.771 213.198 150.46C212.51 151.247 211.036 152.92 210.053 153.313C202.68 155.872 171.029 160.792 162.674 159.316C156.284 158.234 158.447 131.271 162.674 127.925C165.131 125.957 168.473 125.268 171.422 124.481C176.533 123.103 181.645 121.627 186.56 119.659C192.359 117.396 197.962 114.739 203.27 111.688Z" fill="#F68317"/>
    <path d="M89.1483 221.115C114.41 228.889 155.105 221.016 155.105 221.016C155.105 221.016 159.332 221.41 161.298 221.902C165.721 222.985 170.046 224.854 174.47 225.937C165.23 222.296 158.742 211.766 159.135 201.827C155.204 209.109 147.536 213.636 139.673 216.195C127.975 220.032 115 220.131 103.401 216.096C100.256 215.014 97.2086 213.636 94.4563 211.668C89.9346 208.421 86.6909 203.894 83.4471 199.367C84.5283 204.189 85.7079 209.208 84.0368 213.833C82.8573 217.277 80.2033 220.131 77.1561 222.197C73.814 224.461 70.0787 225.642 66.54 227.511C69.0958 227.019 88.5585 220.918 89.1483 221.115Z" fill="#EA5023"/>
    <path d="M16.9976 188.238C19.9465 187.254 22.9937 186.467 26.0409 186.467C26.9256 186.467 27.9085 186.565 28.6949 186.959C29.4813 187.352 30.0711 188.238 29.9728 189.124C29.8745 190.009 28.9898 190.698 28.2034 191.19C27.1222 191.977 26.0409 192.666 24.9596 193.454C24.6648 193.65 24.4682 193.847 24.2716 194.044C23.7801 194.831 24.4682 196.012 25.3528 196.307C26.2375 196.603 27.3188 196.209 28.2034 195.815C29.6779 195.126 31.1523 194.142 32.6268 193.454C34.1012 192.765 35.8706 192.371 37.5416 192.666C39.2127 193.06 40.6871 194.438 40.7854 196.111C40.8837 198.374 38.7212 200.047 37.6399 202.113C37.2467 202.9 37.2467 204.278 38.1314 204.278C38.4263 204.278 38.7212 204.18 39.0161 203.983C40.0974 203.392 41.1786 202.9 42.4565 202.704C43.636 202.507 45.0122 202.802 45.7986 203.688C46.6832 204.672 46.8798 206.148 46.585 207.329C46.2901 208.51 45.4054 209.69 44.5207 210.674C43.636 211.659 42.5548 212.544 41.2769 212.643C39.2127 212.839 37.6399 210.871 36.2638 209.198C33.4132 205.951 29.7762 203.491 25.9426 201.72C21.2244 199.555 16.0146 198.275 10.8049 198.079C9.23215 197.98 7.6594 197.98 6.08665 197.685C3.33434 197.095 8.64237 192.47 9.62534 191.879C11.7879 190.305 14.3436 189.124 16.9976 188.238Z" fill="#FFC61A"/>
    <path d="M9.23163 211.367C11.7873 214.909 14.3431 218.353 16.8988 221.896C19.5528 225.537 22.2068 229.178 25.6472 231.835C29.0875 234.591 33.5109 236.263 37.7376 235.575C39.507 235.279 41.2763 234.492 42.5542 233.114C43.832 231.737 44.5201 229.965 45.0116 228.096C47.0758 219.534 44.3235 210.481 39.9002 203.002C37.9342 199.656 35.5751 196.31 32.3313 194.244C26.5318 190.406 16.1124 190.209 9.52652 192.669C1.17131 195.818 5.39807 206.151 9.23163 211.367Z" fill="#EA5023"/>
    <path d="M225.877 190.802C222.338 187.752 218.406 184.8 213.786 184.406C212.509 184.307 211.034 184.406 210.248 185.488C209.363 186.571 209.56 188.145 210.346 189.326C211.132 190.507 212.214 191.294 213.295 192.18C214.769 193.361 216.047 194.837 217.128 196.313C217.718 197.1 218.21 197.887 218.21 198.871C218.308 199.855 217.718 200.839 216.834 201.036C216.44 201.134 215.949 201.036 215.457 200.938C212.115 199.855 210.051 196.411 207.102 194.345C205.333 193.164 203.072 192.475 201.008 192.967C198.944 193.557 197.174 195.525 197.371 197.592C197.567 199.56 199.238 201.036 200.713 202.414C202.187 203.791 203.76 205.464 203.563 207.432C203.465 208.023 203.17 208.81 202.581 208.908C201.991 209.105 201.303 208.613 200.909 208.121C199.533 206.743 198.059 205.366 196.093 204.775C194.225 204.283 191.866 204.874 191.178 206.743C190.687 207.924 191.08 209.4 191.866 210.384C192.653 211.467 193.734 212.254 194.815 212.943C196.584 214.124 198.452 215.403 200.615 215.6C203.17 215.895 205.628 214.812 207.889 213.73C211.329 212.057 214.769 210.187 218.111 208.219C221.454 206.35 224.796 204.48 228.039 202.315C233.642 198.97 229.612 193.951 225.877 190.802Z" fill="#FFC61A"/>
    <path d="M190.393 225.242C190 221.208 191.867 217.271 193.735 213.729C196.094 209.104 198.748 204.479 201.894 200.346C204.449 197.098 207.496 194.048 211.428 192.473C213.984 191.489 216.736 191.096 219.489 190.997C222.044 190.899 224.797 191.096 227.058 192.276C230.695 194.245 232.562 198.673 232.366 202.707C232.169 206.84 230.301 210.678 227.942 214.122C223.126 221.306 216.343 227.112 208.479 230.654C204.842 232.327 201.402 233.902 197.569 232.819C193.637 231.934 190.786 229.474 190.393 225.242Z" fill="#EA5023"/>
    <path d="M200.221 114.147C199.336 115.032 198.55 116.213 198.943 117.394C199.336 118.476 200.614 118.87 201.793 119.067C205.136 119.657 208.576 119.657 212.016 119.165C210.444 120.346 208.871 121.625 208.084 123.298C207.298 125.069 207.691 127.529 209.461 128.415C210.64 129.005 212.115 128.71 213.393 129.005C213.098 129.694 212.115 129.891 211.525 130.383C210.444 131.269 210.739 133.237 211.82 134.122C212.901 135.106 214.376 135.303 215.85 135.5C217.816 129.202 215.555 122.511 213.294 116.311C212.704 114.639 212.016 112.867 210.935 111.49C207.396 107.062 203.17 111.096 200.221 114.147Z" fill="#FFC61A"/>
    <path d="M174.86 137.169C176.433 138.646 178.006 140.122 179.677 141.598C180.955 142.779 182.232 143.959 183.707 145.042C186.263 146.813 189.113 147.896 192.062 148.781C195.404 149.765 198.845 150.356 202.285 150.553C205.529 150.75 208.969 150.356 211.525 148.388C213.491 146.813 214.769 144.255 215.85 141.893C215.358 143.959 215.064 146.223 214.572 148.289C214.277 149.667 213.393 151.045 212.508 152.127C211.918 152.816 211.033 153.308 210.149 153.8C201.302 158.228 190.784 156.457 181.151 158.72C179.972 159.016 178.596 159.705 178.694 161.181C178.104 157.638 177.613 153.8 177.219 150.159C176.728 145.829 176.236 141.499 174.86 137.169Z" fill="#EA5023"/>
    <path d="M73.912 177.222C75.1899 181.257 77.1558 185.488 80.6945 187.752C84.0366 189.917 88.2633 189.917 92.2935 189.917C97.8964 189.818 103.696 189.72 108.906 187.653C114.115 185.587 118.735 181.06 119.423 175.451C120.111 169.743 116.671 164.43 113.427 159.706C110.577 155.573 107.726 151.539 104.974 147.406C103.204 144.847 101.435 142.288 99.076 140.419C93.3748 135.794 75.7796 133.629 71.4546 141.009C68.9972 145.241 70.0784 154.688 70.3733 159.411C70.8648 165.414 72.0444 171.416 73.912 177.222Z" fill="#F68317"/>
    <path d="M115.491 162.461C115.196 156.064 113.131 149.668 109.593 144.354C107.135 140.614 103.597 137.17 99.1733 136.875C100.844 136.973 103.204 140.319 104.186 141.5C105.956 143.567 107.529 145.732 109.003 147.995C111.854 152.423 114.016 157.344 115.491 162.461Z" fill="#FFC61A"/>
    <path d="M84.5277 175.058C84.4294 172.991 85.2157 170.728 86.8868 169.547C88.5578 168.366 91.2118 168.465 92.4897 170.138C93.0795 171.023 93.3743 172.106 93.9641 172.893C94.6522 173.68 96.1266 173.975 96.6181 172.991C96.6181 170.531 95.9301 167.973 96.1266 165.512C96.3232 163.052 97.6994 160.297 100.255 159.903C102.909 159.51 105.072 162.068 106.349 164.43C107.332 166.201 108.217 168.169 108.905 170.039C109.495 169.941 110.085 169.744 110.576 169.35C110.281 168.071 109.986 166.89 109.79 165.611C109.593 164.824 109.495 163.741 110.281 163.347C111.068 162.954 111.952 163.741 112.444 164.43C113.722 166.201 114.705 168.268 115.393 170.334C115.786 171.417 116.081 172.598 115.589 173.582C115.294 174.172 114.803 174.566 114.41 174.959C107.136 180.962 97.4045 184.8 88.1646 182.93C87.1817 182.734 86.1004 182.438 85.314 181.75C84.1345 180.667 84.5277 179.781 84.7243 178.502C84.7243 177.321 84.5277 176.337 84.5277 175.058Z" fill="#FFC61A"/>
    <path d="M72.5325 178.895C73.4172 181.453 74.4984 183.913 76.3661 185.881C78.332 187.948 81.0843 189.227 83.9349 189.818C86.7855 190.408 91.2089 191.195 94.0595 190.998C102.12 190.506 109.099 189.227 115.39 184.307C117.356 182.732 119.027 179.682 119.912 177.32C120.796 174.958 120.698 172.105 119.125 170.136C117.847 168.464 115.685 167.676 113.621 167.381C106.543 166.102 99.3675 168.956 92.8799 172.006C88.5549 173.974 84.1315 176.139 80.8877 179.682C77.5456 174.466 75.8746 168.464 74.2036 162.461C73.024 158.131 71.8444 153.703 71.4512 149.176C71.2547 146.913 71.2547 144.649 71.5496 142.386C71.7461 140.91 72.6308 139.237 72.5325 137.859C69.5836 140.418 69.2887 146.519 68.8955 150.062C68.2075 156.261 68.5024 162.559 69.5836 168.66C70.4683 172.203 71.353 175.549 72.5325 178.895Z" fill="#EA5023"/>
    <path d="M94.2599 191.391C93.7684 191.391 93.2769 191.391 92.7854 191.391C90.4263 191.391 87.0842 190.702 82.6609 189.423C79.3188 188.439 76.4682 186.766 74.6006 184.404C72.6346 182.043 71.6517 179.189 70.9636 176.63C70.0789 173.285 69.3908 169.84 68.9976 166.396L68.8993 165.215C67.9164 156.162 66.147 139.335 77.2546 134.808C78.4341 134.316 79.8103 134.907 80.3018 136.088C80.7932 137.268 80.2035 138.646 79.0239 139.138C71.2585 142.287 72.7329 156.851 73.6176 164.625L73.7159 165.806C74.0108 169.053 74.6989 172.202 75.4852 175.253C76.075 177.319 76.7631 179.583 78.1392 181.255C79.8103 183.224 82.1694 184.208 83.8404 184.7C87.7723 185.782 90.9178 186.471 92.7854 186.471C100.256 186.569 106.35 185.88 112.15 182.043C113.428 181.255 114.902 179.189 116.082 176.729C116.77 175.154 116.77 173.383 115.983 172.301L115.787 172.104C115.59 171.809 115.394 171.513 115.295 171.12C114.607 167.971 112.838 164.723 111.069 161.771L103.893 149.569C103.205 148.487 103.598 147.01 104.778 146.322C105.859 145.633 107.333 146.026 108.021 147.207L115.197 159.41C117.065 162.558 118.932 166.003 119.817 169.644C121.586 172.202 121.783 175.745 120.309 178.795C119.62 180.37 117.556 184.109 114.706 185.979C108.021 190.604 100.944 191.391 94.2599 191.391Z" fill="#1E3D74"/>
    <path d="M167.882 95.1566C167.882 95.1566 171.716 100.077 182.922 110.212C191.179 117.691 204.351 115.33 209.56 105.489C214.082 96.9278 218.309 86.989 221.552 76.4596C226.959 58.7468 229.318 39.4595 224.796 22.337C222.241 12.7918 214.18 5.90344 204.351 5.1162C167.882 2.06565 146.749 21.9434 146.749 21.9434L148.616 28.3397L167.882 95.1566Z" fill="#F68317"/>
    <path d="M194.325 117C189.508 117 184.987 115.229 181.35 111.982C170.045 101.748 166.114 96.8273 166.015 96.6305L165.72 96.2369L144.095 21.2518L145.176 20.2678C146.061 19.3821 167.588 -0.299007 204.646 2.75157C215.36 3.63722 224.305 11.2144 227.058 21.6454C231.186 37.3903 230.006 56.5794 223.814 77.1462C220.865 86.9868 216.638 97.221 211.625 106.668C208.873 111.982 203.761 115.623 197.863 116.705C196.684 116.902 195.504 117 194.325 117ZM169.947 94.072C171.028 95.3512 175.157 100.075 184.495 108.538C187.935 111.588 192.457 112.867 196.979 112.08C201.5 111.293 205.334 108.538 207.398 104.503C212.215 95.3512 216.245 85.4123 219.194 75.8669C225.19 56.0874 226.271 37.8824 222.438 23.0231C220.177 14.5602 212.903 8.36069 204.154 7.67185C185.969 6.19576 171.716 10.624 163.066 14.6586C156.087 17.906 151.369 21.3502 149.403 23.0231L169.947 94.072Z" fill="#1E3D74"/>
    <path d="M167.882 95.1594C167.882 95.1594 171.716 100.08 182.921 110.215C191.178 117.694 204.35 115.332 209.56 105.492C214.081 96.9307 218.308 86.9918 221.552 76.4625C224.894 61.6033 225.877 46.1537 222.142 32.1802C219.684 22.7333 211.526 15.845 201.794 15.0577C175.156 12.7944 156.676 22.8317 148.616 28.4408L167.882 95.1594Z" fill="#EA5023"/>
    <path d="M25.2535 105.292C28.8905 112.967 37.344 116.411 44.9129 114.443C47.272 113.853 49.5328 112.672 51.5971 110.999C63.2944 101.355 67.3245 96.5336 67.3245 96.5336L91.7021 24.3046C91.7021 24.3046 71.453 3.5412 34.8866 5.21408C27.7109 5.5093 21.4199 9.05186 17.2915 14.5625C15.7187 16.629 14.5392 18.9907 13.7528 21.5493C5.39756 48.6105 14.2443 81.7729 25.2535 105.292Z" fill="#F68317"/>
    <path d="M25.2517 105.294C28.8887 112.97 37.3423 116.414 44.9111 114.446C51.8902 108.247 56.3135 105.885 56.3135 105.885L78.8235 33.0645C78.8235 33.0645 58.5744 12.3993 22.008 13.9738C20.3369 14.0722 18.7642 14.269 17.1914 14.6626C15.6187 16.7292 14.4391 19.0909 13.6527 21.6494C5.3958 48.6126 14.2425 81.7754 25.2517 105.294Z" fill="#EA5023"/>
    <path d="M118.536 134.517C142.226 132.844 162.082 118.87 172.501 99.3861C178.104 88.7584 180.954 76.5562 180.07 63.6652C177.514 27.2555 145.764 -0.199455 109.296 2.45747C79.9055 4.62237 56.4126 25.4842 49.5318 52.5455C47.8608 59.1386 47.1727 66.2237 47.6642 73.4072C50.3182 109.817 81.9697 137.173 118.536 134.517Z" fill="#FFC61A"/>
    <path d="M113.621 137.079C97.1071 137.079 81.3796 131.175 68.7976 120.35C55.0361 108.345 46.6808 91.714 45.403 73.5088C44.9115 66.2268 45.5013 58.9448 47.2706 51.9579C54.5446 23.125 79.4137 2.36134 109.099 0.196408C127.481 -1.18128 145.174 4.72308 159.034 16.827C172.796 28.8325 181.151 45.4631 182.429 63.6683C183.313 76.461 180.659 89.2538 174.565 100.57C163.359 121.629 142.52 135.209 118.732 136.981C116.963 136.981 115.292 137.079 113.621 137.079ZM114.211 4.72308C112.638 4.72308 111.065 4.82149 109.492 4.91989C81.8711 6.88801 58.673 26.274 51.8906 53.1388C50.2195 59.732 49.6297 66.4236 50.1212 73.2136C51.3008 90.1395 59.0662 105.688 71.9431 116.807C84.82 128.026 101.334 133.536 118.437 132.257C140.554 130.683 160.017 117.988 170.436 98.4056C176.039 87.8761 178.595 75.969 177.71 63.9635C176.531 47.0376 168.765 31.4895 155.987 20.3696C144.191 10.1354 129.545 4.72308 114.211 4.72308Z" fill="#1E3D74"/>
    <path d="M118.536 134.523C142.226 132.85 162.082 118.876 172.501 99.3919C174.172 92.7987 174.86 85.7135 174.369 78.5298C171.813 42.1196 140.063 14.6643 103.595 17.3212C79.8072 19.0926 59.9513 32.9678 49.5318 52.5506C47.8608 59.1438 47.1727 66.2291 47.6642 73.4127C50.3182 109.823 81.9697 137.18 118.536 134.523Z" fill="#F68317"/>
    <path d="M69.4862 140.423C71.059 143.671 73.5164 146.918 76.8585 149.87C95.4365 166.107 120.404 163.155 134.853 144.655C144.29 132.551 146.747 114.149 147.141 100.175C147.435 88.9572 146.354 80.5928 146.354 80.5928L87.2779 110.016C71.9437 109.622 62.3106 125.663 69.4862 140.423Z" fill="#F68317"/>
    <path d="M69.4867 140.424C71.0594 143.672 73.5169 146.919 76.8589 149.871C95.437 166.108 120.404 163.156 134.854 144.656C144.291 132.552 146.748 114.15 147.141 100.177C147.141 100.177 141.243 139.047 114.998 150.462C93.5694 159.712 79.0215 150.363 69.4867 140.424Z" fill="#FFC61A"/>
    <path d="M200.615 115.827C205.333 114.252 209.167 111.005 211.526 106.478C216.343 97.3267 222.83 82.8611 226.565 65.9354C230.202 49.4033 230.301 34.5441 226.959 21.5546C225.582 16.4375 222.83 12.0093 218.8 8.56508C214.77 5.2193 209.855 3.15279 204.645 2.75916C200.615 2.46395 196.487 2.36554 192.555 2.56235C191.277 2.66076 190.294 3.74322 190.392 4.92408C190.491 6.20335 191.572 7.18741 192.751 7.089C196.487 6.89219 200.419 6.99059 204.252 7.28581C213.001 7.97465 220.373 14.1742 222.535 22.7355C231.185 55.5044 213.197 93.4889 207.496 104.313C205.333 108.348 201.598 111.103 197.076 111.989C192.555 112.776 187.935 111.497 184.494 108.447C180.366 104.707 176.827 101.361 173.878 98.3108C172.994 97.4251 171.519 97.3267 170.635 98.2124C169.75 99.098 169.652 100.574 170.536 101.46C173.584 104.609 177.22 108.053 181.349 111.792C185.871 115.827 191.867 117.5 197.765 116.516C198.747 116.417 199.73 116.221 200.615 115.827Z" fill="#1E3D74"/>
    <path d="M46.8783 116.216C49.1391 115.429 51.2033 114.248 53.071 112.772C55.5284 110.706 57.8875 108.737 60.05 106.868C61.033 105.982 61.1313 104.604 60.2466 103.62C59.362 102.636 57.9858 102.636 57.0028 103.424C54.9386 105.293 52.5795 107.261 50.2204 109.23C46.6817 112.182 42.0617 113.264 37.5401 112.28C33.0185 111.296 29.3815 108.344 27.4156 104.211C22.1075 93.1893 5.88859 54.6142 16.0131 22.1402C18.5689 13.7757 26.236 7.87133 34.9844 7.47771C53.071 6.69046 67.0291 11.7092 75.4826 15.9406C76.5639 16.5311 78.0383 16.039 78.5298 14.9566C79.1196 13.8741 78.6281 12.398 77.5468 11.906C64.7683 5.31277 49.9255 2.26219 34.7878 2.85262C29.4798 3.14784 24.565 4.91915 20.3382 8.16655C16.2097 11.4139 13.1625 15.7438 11.5898 20.7625C7.65793 33.5553 7.06815 48.4146 9.91876 65.0452C12.8677 82.0695 18.7655 96.8304 23.0905 106.179C25.6462 111.591 30.4627 115.429 36.3605 116.708C39.9975 117.594 43.5362 117.397 46.8783 116.216Z" fill="#1E3D74"/>
    <path d="M71.159 120.747C71.5522 120.648 71.8471 120.353 72.1419 120.058C72.9283 119.074 72.83 117.696 71.9453 116.81C59.0685 105.691 51.3031 90.1426 50.0252 73.1186C47.7644 41.4323 69.5862 12.5997 100.746 6.00656C102.024 5.71135 102.81 4.53049 102.516 3.25123C102.221 1.97196 101.041 1.18473 99.7633 1.47994C83.6427 4.8257 69.2913 13.9773 59.2651 27.0652C49.2388 40.4482 44.2257 56.8818 45.4053 73.5122C46.6831 91.7171 55.0383 108.348 68.8982 120.353C69.4879 120.943 70.3726 121.042 71.159 120.747Z" fill="#1E3D74"/>
    <path d="M143.897 130.096C143.995 130.096 144.094 129.998 144.192 129.998C156.283 123.995 166.309 114.745 173.19 103.035C180.169 91.1276 183.412 77.4493 182.429 63.5742C181.348 48.9118 175.844 35.2335 166.211 24.0154C165.424 23.0313 163.95 22.9329 162.967 23.7201C161.984 24.5074 161.885 25.9835 162.672 26.9675C171.617 37.3984 176.827 50.0927 177.81 63.8694C179.677 89.9468 165.621 114.253 142.128 125.766C140.948 126.357 140.555 127.734 141.047 128.817C141.538 129.998 142.816 130.49 143.897 130.096Z" fill="#1E3D74"/>
    <path d="M116.376 160.695C124.141 158.038 131.12 153.019 136.625 146.032C143.997 136.684 148.224 122.71 149.207 104.505C149.993 91.1217 148.617 80.5923 148.519 80.1986C148.322 78.9193 147.241 78.0337 145.963 78.2305C144.685 78.4273 143.801 79.5098 143.997 80.7891C144.095 81.2811 149.207 122.513 132.988 143.179C126.304 151.74 117.064 156.955 107.038 157.94C96.913 158.924 86.6902 155.381 78.335 148.099C68.7019 139.734 68.0138 129.795 70.5695 123.202C73.3218 116.215 79.6128 111.984 87.0834 112.181C88.3612 112.181 89.4425 111.197 89.4425 109.917C89.4425 108.638 88.4595 107.556 87.1817 107.556C77.8435 107.359 69.6849 112.771 66.2445 121.529C63.099 129.5 63.7871 141.506 75.1895 151.543C84.5277 159.711 96.0284 163.647 107.431 162.565C110.576 162.269 113.525 161.679 116.376 160.695Z" fill="#1E3D74"/>
    <path d="M85.5109 135.208C86.0024 135.011 86.4938 134.815 86.9853 134.519C90.4257 132.453 91.9985 127.926 91.3104 122.022C89.7376 106.375 83.9381 82.3644 83.6432 81.3804C83.3483 80.1011 82.0705 79.4122 80.8909 79.7075C79.6131 80.0027 78.925 81.282 79.2199 82.4628C79.3182 82.758 85.216 107.261 86.7887 122.612C87.2802 126.548 86.4938 129.599 84.6262 130.583C83.3483 131.37 81.579 131.075 79.8096 129.796C78.8267 129.009 77.3522 129.304 76.5659 130.288C75.7795 131.272 76.0744 132.748 77.0573 133.535C79.8097 135.503 82.8569 136.094 85.5109 135.208Z" fill="#1E3D74"/>
    <path d="M130.037 92.5969C130.626 92.4001 131.118 92.0065 131.413 91.4161C131.904 90.2352 131.413 88.8576 130.331 88.3656C129.742 88.0703 115.882 81.8709 99.5646 89.7432C98.385 90.3336 97.8935 91.7113 98.4833 92.7938C99.0731 93.8762 100.449 94.3682 101.531 93.8762C115.882 86.8895 128.169 92.4985 128.267 92.5969C128.955 92.7938 129.545 92.7938 130.037 92.5969Z" fill="#1E3D74"/>
    <path d="M146.453 85.3145C159.21 85.3145 169.552 74.9608 169.552 62.189C169.552 49.4171 159.21 39.0635 146.453 39.0635C133.695 39.0635 123.353 49.4171 123.353 62.189C123.353 74.9608 133.695 85.3145 146.453 85.3145Z" fill="#F68317"/>
    <path d="M146.454 87.6816C132.398 87.6816 120.995 76.2667 120.995 62.1948C120.995 48.123 132.398 36.708 146.454 36.708C160.511 36.708 171.913 48.123 171.913 62.1948C171.913 76.1683 160.511 87.6816 146.454 87.6816ZM146.454 41.333C134.953 41.333 125.713 50.6815 125.713 62.0964C125.713 73.6098 135.052 82.8598 146.454 82.8598C157.955 82.8598 167.195 73.5114 167.195 62.0964C167.293 50.6815 157.955 41.333 146.454 41.333Z" fill="white"/>
    <path d="M128.072 107.953C128.76 107.756 129.35 107.165 129.547 106.378C129.841 105.197 129.153 103.918 127.974 103.524C127.384 103.327 114.212 99.7848 103.203 104.508C102.023 105 101.532 106.378 102.023 107.559C102.515 108.74 103.891 109.232 105.071 108.74C114.605 104.607 126.696 107.953 126.794 107.953C127.187 108.051 127.581 108.051 128.072 107.953Z" fill="#1E3D74"/>
    <path d="M159.428 63.6692C159.527 63.6692 159.723 63.5708 159.822 63.4724C160.903 62.882 161.296 61.406 160.706 60.3236C157.266 54.4196 150.483 51.3691 143.799 52.8451C138.295 54.026 133.773 58.0604 132.102 63.374C131.709 64.5549 132.397 65.8341 133.576 66.2277C134.756 66.6213 136.034 65.9325 136.525 64.7517C137.803 61.0124 140.949 58.1588 144.88 57.2732C149.599 56.2892 154.415 58.454 156.873 62.5868C157.266 63.5708 158.445 63.9644 159.428 63.6692Z" fill="#1E3D74"/>
    <path d="M84.1382 88.5547C96.8958 88.5547 107.238 78.2014 107.238 65.4299C107.238 52.6585 96.8958 42.3052 84.1382 42.3052C71.3806 42.3052 61.0386 52.6585 61.0386 65.4299C61.0386 78.2014 71.3806 88.5547 84.1382 88.5547Z" fill="#F68317"/>
    <path d="M84.1354 90.9219C70.0789 90.9219 58.6765 79.5069 58.6765 65.4351C58.6765 51.3632 70.0789 39.9482 84.1354 39.9482C98.1918 39.9482 109.594 51.3632 109.594 65.4351C109.594 79.5069 98.1918 90.9219 84.1354 90.9219ZM84.1354 44.5733C72.6347 44.5733 63.3948 53.9217 63.3948 65.3367C63.3948 76.7516 72.7329 86.1984 84.1354 86.1984C95.5378 86.1984 104.876 76.85 104.876 65.4351C104.876 54.0201 95.6361 44.5733 84.1354 44.5733Z" fill="white"/>
    <path d="M97.8946 67.3126C97.9929 67.3126 98.1895 67.2142 98.2878 67.1158C99.369 66.5254 99.7622 65.0492 99.1725 63.9667C95.7321 58.0623 88.9496 55.0116 82.2654 56.4877C76.7608 57.6686 72.2391 61.7034 70.5681 67.0174C70.1749 68.1983 70.863 69.4776 72.0426 69.8712C73.2221 70.2649 74.5 69.576 74.9915 68.3951C76.2693 64.6556 79.4148 61.8018 83.3467 60.9161C88.0649 59.932 92.8815 62.097 95.3389 66.2301C95.7321 67.3126 96.9116 67.7063 97.8946 67.3126Z" fill="#1E3D74"/>
    <path d="M109.198 66.418C109.296 66.3196 109.591 65.926 109.591 65.3355H104.873C104.873 63.2691 107.232 59.7266 123.255 59.7266V64.4499C114.998 64.4499 110.083 65.7291 109.198 66.418Z" fill="white"/>
    <path d="M108.709 155.483C108.709 155.68 132.988 161.584 144.194 163.847C146.946 164.438 149.797 164.93 152.549 165.422C155.105 165.914 157.661 166.406 160.216 166.012C162.477 165.717 164.541 164.536 166.311 163.159C168.277 161.486 170.144 159.616 172.012 157.845C176.435 153.515 180.564 148.988 184.594 144.265C184.692 144.167 184.692 144.068 184.692 143.97C184.791 143.871 184.889 143.675 184.692 143.478L176.73 137.278C167.589 141.018 160.708 150.268 159.332 160.108C149.502 153.023 137.903 148.398 125.911 146.823C122.274 146.331 116.376 146.036 112.739 146.135L108.709 155.483Z" fill="#4A50FF"/>
    <path d="M158.446 168.471C156.382 168.471 154.318 168.077 152.352 167.782H152.155C149.403 167.29 146.651 166.699 143.8 166.207C136.919 164.83 126.205 162.271 121.88 161.287C107.529 157.843 107.529 157.843 106.84 156.859C106.447 156.367 106.349 155.678 106.546 155.088C106.546 154.891 106.644 154.792 106.644 154.596L110.772 145.247C111.166 144.361 111.952 143.869 112.837 143.869C116.67 143.771 122.666 144.066 126.402 144.558C137.706 146.034 148.518 149.971 157.955 156.17C160.412 146.92 167.391 138.752 176.041 135.111C176.828 134.816 177.712 134.915 178.4 135.407L186.362 141.606C187.051 142.098 187.345 142.885 187.345 143.574C187.345 143.968 187.247 144.361 187.149 144.755C187.051 145.149 186.854 145.444 186.657 145.739C182.627 150.561 178.302 155.088 173.977 159.516L173.289 160.205C171.618 161.779 169.947 163.452 168.178 165.027C165.818 166.995 163.459 168.077 160.904 168.471C159.822 168.471 159.134 168.471 158.446 168.471ZM111.952 153.907C118.243 155.481 135.346 159.614 144.685 161.484C147.535 162.074 150.288 162.566 153.04 163.058H153.236C155.596 163.452 157.856 163.944 160.019 163.649C161.592 163.452 163.164 162.665 164.934 161.287C166.605 159.909 168.178 158.335 169.75 156.76L170.438 156.072C174.272 152.234 178.106 148.199 181.743 143.968L176.533 139.835C168.866 143.574 163.066 151.545 161.788 160.205C161.69 160.992 161.1 161.681 160.412 162.074C159.626 162.37 158.741 162.271 158.151 161.779C148.715 154.891 137.509 150.463 125.812 148.986C122.863 148.593 118.046 148.298 114.508 148.298L111.952 153.907Z" fill="#1E3D74"/>
    <path d="M186.263 142.094C185.771 141.897 185.378 141.798 184.788 142.487C179.284 147.9 174.074 154.001 167.586 160.102C167.586 160.102 167.586 160.102 167.488 160.102C164.539 161.48 161.394 162.562 158.248 163.546C144.88 161.086 131.61 158.724 118.241 156.264C114.506 155.575 111.262 154.886 107.527 154.198C107.134 154.099 106.741 154.099 106.544 154.198C105.758 154.296 105.168 154.886 105.168 155.674C105.168 155.772 105.168 155.87 105.07 155.969C105.07 155.969 97.894 223.278 97.3042 228.592V228.691C97.1076 229.675 97.2059 230.659 97.7957 231.544C98.4837 232.528 99.1718 232.528 100.745 232.824C100.745 232.824 124.631 238.236 137.114 240.302C140.456 240.893 143.897 241.385 147.337 241.877C147.436 241.877 147.436 241.877 147.534 241.877C149.205 242.074 150.876 241.286 152.35 240.696C154.415 240.007 157.462 239.417 159.035 237.941C162.377 234.89 165.62 231.84 168.766 228.592C170.437 226.919 172.206 225.148 173.779 223.377C174.762 222.294 175.843 221.113 176.04 219.637C176.138 219.637 176.138 219.539 176.236 219.44C177.711 209.403 179.185 199.464 180.562 189.427C181.938 179.488 183.216 169.549 184.493 159.61C185.181 153.902 185.87 148.293 186.558 142.586C186.656 142.389 186.361 142.094 186.263 142.094Z" fill="#7398FF"/>
    <path d="M148.124 244.147C147.928 244.147 147.633 244.147 147.436 244.147C147.24 244.147 147.043 244.147 146.846 244.049C143.406 243.557 140.064 243.064 136.82 242.572C130.136 241.49 105.464 236.471 100.352 234.995V235.094L99.9589 234.995C98.4845 234.7 97.1083 234.503 95.9288 232.83C95.0441 231.649 94.6509 230.173 94.9458 228.402C94.9458 228.304 94.9458 228.205 94.9458 228.205C95.5356 222.99 102.711 156.27 102.711 155.582C102.711 155.483 102.711 155.385 102.81 155.286C103.006 153.515 104.284 152.137 106.053 151.744C106.545 151.645 107.233 151.645 107.921 151.744C109.789 152.039 111.558 152.433 113.229 152.826C114.998 153.22 116.669 153.515 118.537 153.909L158.052 161.092C160.805 160.305 163.557 159.223 166.113 158.042C169.946 154.499 173.288 150.858 176.63 147.414C178.793 145.052 180.857 142.887 183.02 140.722C184.789 138.951 186.46 139.64 187.05 139.837C187.934 140.132 189.114 141.313 188.917 142.887C188.229 148.595 187.541 154.204 186.853 159.911C185.575 169.85 184.297 179.888 182.921 189.827C181.545 199.766 180.071 209.902 178.596 219.841C178.596 220.136 178.498 220.431 178.301 220.628C177.908 222.399 176.63 223.777 175.549 224.958C173.976 226.631 172.305 228.402 170.438 230.173C167.292 233.322 163.95 236.471 160.608 239.522C158.937 240.998 156.578 241.687 154.514 242.376C154.022 242.572 153.531 242.671 153.039 242.868C152.744 242.966 152.449 243.065 152.154 243.163C151.171 243.655 149.697 244.147 148.124 244.147ZM147.829 239.423C148.616 239.522 149.697 239.128 150.68 238.735C150.975 238.636 151.368 238.538 151.663 238.341C152.154 238.144 152.744 238.046 153.236 237.849C154.71 237.357 156.676 236.865 157.462 236.078C160.805 233.027 164.048 229.977 167.096 226.828C168.865 225.056 170.536 223.383 172.109 221.71C172.6 221.12 173.583 220.136 173.681 219.349C173.681 219.053 173.78 218.857 173.878 218.561C175.352 208.721 176.827 198.782 178.105 189.04C179.481 179.101 180.759 169.063 182.037 159.223C182.528 155.09 183.118 150.858 183.609 146.627C182.43 147.906 181.152 149.185 179.874 150.563C176.434 154.204 172.993 157.943 168.865 161.683C168.668 161.88 168.373 162.076 168.078 162.175C165.031 163.552 161.886 164.733 158.642 165.619C158.249 165.717 157.954 165.717 157.561 165.717L117.554 158.435C115.686 158.14 113.917 157.747 112.148 157.353C110.477 157.058 108.904 156.664 107.135 156.369C106.545 161.88 100.156 222.399 99.3692 228.5C99.3692 228.599 99.3692 228.697 99.3692 228.796C99.2709 229.583 99.3692 229.78 99.4675 229.878C99.5658 229.977 99.5658 229.977 99.5658 229.977C99.6641 230.075 100.254 230.173 100.647 230.173L101.04 230.272C101.139 230.272 101.139 230.272 101.237 230.272C102.613 230.567 125.418 235.782 137.41 237.652C140.654 238.144 144.094 238.735 147.535 239.128C147.731 239.423 147.731 239.423 147.829 239.423Z" fill="#1E3D74"/>
    <path d="M174.961 204.784C174.568 208.228 174.076 211.673 173.683 215.215C173.585 215.707 173.29 216.199 172.995 216.593C170.931 218.659 168.867 220.726 166.704 222.792C166.409 223.088 166.016 223.383 165.819 223.383C165.328 223.383 164.542 223.383 164.542 222.399C165.328 211.377 166.802 201.045 168.178 190.023C168.572 186.776 168.965 183.627 169.456 180.38C169.456 180.085 169.751 179.199 169.85 178.018C170.439 176.345 175.256 172.114 178.991 168.669C179.188 168.473 179.384 169.063 179.384 169.26C177.91 181.069 176.435 192.877 174.961 204.784Z" fill="#4A50FF"/>
    <path d="M149.01 244.142C148.912 244.142 148.814 244.142 148.715 244.142C147.438 243.945 146.455 242.862 146.651 241.485L155.793 163.154C155.989 161.875 157.071 160.989 158.447 161.088C159.725 161.284 160.708 162.367 160.511 163.744L151.369 242.075C151.271 243.256 150.19 244.142 149.01 244.142Z" fill="#1E3D74"/>
    <path d="M159.135 240.207C159.037 240.207 158.939 240.207 158.84 240.207C157.562 240.108 156.579 238.927 156.776 237.648L165.033 159.809C165.131 158.53 166.311 157.546 167.589 157.742C168.866 157.841 169.849 159.022 169.653 160.301L161.396 238.14C161.298 239.321 160.315 240.207 159.135 240.207Z" fill="#1E3D74"/>
</svg>
